<?xml version="1.0" encoding="UTF-8"?>
<svg width="1351px" height="1051px" viewBox="0 0 1351 1051" version="1.1" xmlns="http://www.w3.org/2000/svg" xmlns:xlink="http://www.w3.org/1999/xlink">
    <title>Stroke 1</title>
    <g id="Page-1" stroke="none" stroke-width="1" fill="none" fill-rule="evenodd">
        <path d="M1349.91677,401.909244 C1354.15593,408.046667 1057.83998,465.213551 1056.87452,471.344848 C1058.49978,477.731445 1321.67495,481.565037 1321.77192,487.406312 C1324.31836,493.639728 1063.43035,509.219185 1061.9927,515.17075 C1061.79877,521.567559 1283.47622,534.761488 1283.17899,540.414861 C1283.79242,546.648278 1059.85521,537.647404 1057.96435,543.360008 C1055.89642,549.662866 1279.07475,578.174824 1278.30323,583.61783 C1276.83397,589.73483 1050.70657,565.217814 1048.33298,570.644481 C1044.43322,576.743099 1265.26115,620.082909 1263.86356,625.280827 C1260.2821,631.152738 1035.92751,591.609757 1033.00585,596.705554 C1027.40283,602.501896 1245.51358,679.371851 1243.29387,684.26545 C1239.3393,687.602738 1018.12561,613.588065 1016.8566,616.237062 C1012.17056,619.59069 1322.59403,750.574134 1321.76981,753.180241 C1317.08166,756.366391 1004.17288,627.388588 1002.73945,629.892575 C997.511655,633.113446 1300.64362,771.42912 1299.51374,773.894301 C1294.17633,776.923186 988.432578,640.531456 986.788353,642.872051 C981.096803,645.956081 1275.43638,791.158741 1273.9376,793.454403 C1268.03525,796.321938 970.976383,652.949272 969.066552,655.110135 C962.987133,658.053239 1247.06716,809.66292 1245.14257,811.760469 C1238.77647,814.472781 951.871746,664.595059 949.652042,666.551682 C943.264857,669.355902 1215.67088,826.864045 1213.26989,828.726718 C1201.66545,833.636657 924.697756,678.575313 916.853956,682.41299 C905.131471,687.245317 1050.38405,808.845959 1041.21644,812.034151 C1028.30294,816.233333 876.692692,697.496142 867.468164,700.333041 C855.001561,704.454612 967.057645,833.916466 956.136193,835.956827 C942.392153,839.46772 823.683279,712.270892 813.170775,714.00285 C800.303656,717.356478 875.465846,852.202108 863.089887,853.055833 C848.93479,855.878435 766.809937,722.619752 755.201282,723.201837 C742.245627,725.711952 778.252061,863.51294 764.807354,863.241301 C750.610098,865.33068 707.274213,728.354822 694.84977,727.815628 C682.113345,729.384194 634.997849,1050.57002 620.882805,1049.31965 C608.129516,1050.57002 647.955612,729.400533 636.418629,727.91979 C625.176763,728.559063 542.683013,1048.50515 529.805353,1046.57304 C517.614896,1047.02441 593.451641,726.396157 581.674348,724.145428 C571.121792,723.863576 453.342538,1040.78282 440.420611,1038.25228 C429.098642,1037.78049 540.528656,719.554104 528.732391,716.611 C519.077835,715.373303 410.870926,844.639086 398.170337,841.559141 C388.00565,840.102907 490.1226,708.956071 478.54135,705.387991 C469.940785,703.214873 330.712819,825.579373 318.530793,821.966361 C309.774238,819.523646 443.152555,694.767491 432.039276,690.615284 C424.587562,687.574145 257.985347,801.080739 246.665486,796.908108 C239.692283,793.648431 400.763154,677.343744 390.583711,672.746292 C384.472672,669.045457 253.394163,751.266509 243.488758,746.638422 C238.033301,742.627141 363.934608,657.270998 354.75224,652.162946 C349.678329,647.828965 200.827427,717.912011 192.486144,712.730433 C188.462007,708.108473 332.481415,634.575807 324.589132,628.985747 C320.438517,624.116657 158.813246,680.580954 152.379686,674.882647 C149.609799,669.788892 306.831496,609.59925 300.522307,603.570074 C297.162184,598.251654 30.3676054,695.300558 26.1094827,689.175389 C24.359858,683.720128 287.277859,582.692621 282.798398,576.306025 C280.112829,570.603633 10.5083111,651.862713 8.56896807,645.433226 C8.18531543,642.108192 275.112697,557.501612 273.238701,553.424974 C272.0498,549.95493 3.6152114,622.276451 3.29690618,618.234533 C2.94698124,614.811465 269.695184,539.889964 268.740269,535.76635 C267.576663,532.173762 1.09406545,594.585539 1.78395859,590.527283 C1.43555846,587.004136 266.52478,521.914767 266.497376,517.774815 C265.352742,514.069894 0.122285946,503.569896 1.78395859,499.527979 C1.41869461,495.904754 265.567756,503.64955 266.446785,499.527979 C265.329554,495.716853 13.1706918,446.938122 15.7339974,442.951349 C15.3482368,439.230089 266.777738,485.176007 268.525255,481.097326 C267.4544,477.196335 20.8859044,418.544623 24.2607828,414.63342 C25.270506,407.223578 271.392109,461.665896 275.178044,454.13351 C275.140101,446.425478 9.08753154,369.649475 15.7339974,362.492891 C17.4857301,354.995227 284.124318,426.463023 290.005587,419.194107 C290.958394,411.522839 41.280626,315.983271 49.4722423,309.112624 C52.0018202,301.684401 303.509317,392.193528 311.207665,385.3045 C313.180736,377.851768 147.904441,318.728261 157.287067,312.215036 C160.592383,305.052325 328.895739,359.43337 338.099186,353.01818 C341.08198,345.955547 195.839942,269.590067 206.120568,263.522085 C210.132057,256.827085 359.509955,328.766676 369.919168,322.921317 C373.858985,316.387667 144.984887,101.814759 155.906339,96.3268201 C157.651748,92.3870231 390.682786,303.618558 398.962938,300.403814 C400.699915,296.470144 184.267123,73.6336708 192.486144,70.570065 C194.433919,66.9059925 414.477682,287.342641 423.038195,284.442428 C425.150393,280.759974 222.120148,49.7171216 230.427704,47.0027669 C232.567305,43.6185037 439.537367,272.445348 448.29603,269.902555 C450.798204,266.477443 281.596848,38.6881408 289.900188,36.3863516 C292.235831,33.2696433 465.688986,259.043093 474.540401,256.898569 C477.468387,253.736928 321.45878,19.5896222 329.65672,17.7514588 C332.213702,14.8920934 492.759685,247.242084 501.598452,245.534634 C504.992302,242.640548 361.944674,3.1217199 369.919168,1.79007258 C372.939905,-0.897730897 520.875944,237.038234 529.805353,235.745393 C533.945429,233.063716 476.806481,71.4115354 484.627093,70.570065 C487.999863,68.1396044 550.370822,228.464223 559.049382,227.694237 C563.775476,225.331175 530.781349,89.7686613 538.136097,89.4908944 C541.943111,87.3259463 598.913421,224.955373 607.225192,224.718454 C612.57525,222.700559 614.255311,7.49654898 621.059875,7.75797667 C625.37913,5.87896512 629.384295,220.376304 637.225986,220.658155 C643.214762,219.020147 656.891346,2.52125317 663.082488,3.27081538 C667.981437,1.71858845 660.184013,217.855977 667.475521,218.630048 C674.098799,217.404606 699.417766,0.607520749 704.984945,1.79007258 C718.336901,0.603435941 703.174189,217.580253 718.819628,219.814642 C736.178857,220.143469 802.030093,63.4522876 813.737822,66.767109 C828.561149,68.0579083 757.587517,223.652319 771.48544,228.225262 C789.455983,231.262316 894.753878,77.1159694 905.5088,82.4180498 C921.400873,86.4007374 799.976919,234.530162 811.973442,241.178187 C829.610923,246.741695 946.66714,130.95782 956.690592,138.204269 C972.814543,144.703198 851.879641,266.765422 861.905201,275.247526 C878.269462,282.935134 1195.14125,3.05444176 1204.214,12.1370117 C1219.61492,20.6313694 892.354995,292.671273 900.215658,302.734197 C914.431886,312.092491 1238.96408,65.1904944 1246.56968,75.74768 C1254.6833,80.20829 952.004549,328.219312 953.159723,333.513223 C960.480743,338.184201 1297.98546,116.601884 1299.51374,121.914177 C1307.10248,126.603536 984.256667,346.839908 984.927005,352.32172 C991.381645,357.254126 1262.71049,264.457506 1263.86356,269.902555 C1270.79249,274.794112 1016.49403,370.666592 1016.69218,376.260736 C1022.14553,381.42189 1310.60081,317.829604 1311.40184,323.321628 C1317.51499,328.399044 1032.81402,396.276294 1032.57793,401.909244 C1036.88664,407.266469 1332.77045,357.029461 1333.2595,362.492891 C1338.37558,367.735742 1054.38289,430.511067 1053.75471,436.109296 C1056.79864,441.615617 1349.69544,396.537721 1349.91677,401.909244 Z" id="Stroke-1" stroke="#EF8322" stroke-width="2"></path>
    </g>
</svg>