<?xml version="1.0" encoding="UTF-8"?>
<svg width="1345px" height="1044px" viewBox="0 0 1345 1044" version="1.1" xmlns="http://www.w3.org/2000/svg" xmlns:xlink="http://www.w3.org/1999/xlink">
    <title>Stroke 3</title>
    <g id="Page-1" stroke="none" stroke-width="1" fill="none" fill-rule="evenodd">
        <path d="M1320.99288,509.892704 C1321.49075,518.163347 1059.79323,515.538847 1057.67568,522.926952 C1058.11263,530.016675 1315.06036,560.411709 1311.73487,568.856759 C1311.48068,576.673526 1053.95105,550.399104 1050.67808,558.028856 C1050.24112,564.641589 1348.23055,650.628703 1343.96183,659.153602 C1342.87994,666.371503 1043.54603,584.362114 1039.21639,592.090627 C1037.86771,598.136013 1316.82919,712.38478 1311.73487,720.819324 C1309.78328,727.303878 1019.40929,609.083689 1014.128,616.75967 C1011.8739,622.164165 1183.4358,712.664251 1177.60832,720.819324 C1174.78282,726.463365 992.133605,633.308077 986.003618,640.77603 C982.877703,645.501812 1149.73978,760.804606 1143.25267,768.488992 C1141.72332,770.625995 965.651109,654.331161 961.105088,659.153602 C959.531626,660.950197 1125.35848,788.932358 1120.78935,793.845154 C1118.98691,795.631243 942.286902,667.528973 937.511898,672.21483 C935.66534,673.761373 1101.40574,812.575975 1096.64964,817.253428 C1094.59301,818.707514 925.262496,673.508022 920.271116,678.006866 C918.168266,679.324369 1075.87323,834.208667 1070.94277,838.594041 C1068.65926,839.739239 907.170006,685.318176 901.985356,689.577473 C899.636719,690.695354 1076.46405,1013.55675 1071.36973,1017.59121 C1068.88245,1018.45904 886.221773,694.923132 880.862761,698.894554 C878.27884,699.83803 1048.13965,1030.88391 1042.89828,1034.51072 C1036.02672,1037.38738 867.163536,699.228083 857.05473,704.867922 C846.945924,710.507761 923.56214,913.58667 913.579379,917.761916 C906.0713,919.543803 837.660522,704.29905 827.013924,708.489005 C818.749575,710.724768 906.254192,1032.20982 895.981528,1034.51072 C887.933556,1035.37855 801.540629,718.241051 790.58102,720.819324 C781.58561,722.391082 837.313898,1041.92194 827.013924,1042.32439 C818.45547,1042.44306 758.183196,722.901693 747.166866,723.786333 C737.513922,724.740315 766.554355,1042.35691 756.460254,1040.96796 C747.416527,1040.47206 704.896499,726.501284 694.065035,725.719607 C683.865897,726.074724 685.79137,919.684589 676.069102,916.717579 C667.359395,915.853953 668.250112,731.512744 658.941692,729.388349 C649.217322,729.276981 620.035812,905.660637 611.78827,901.790077 C602.729838,900.546118 628.520739,729.043834 619.689188,725.719607 C609.750543,725.137552 528.495655,922.575952 520.701875,917.761916 C511.41026,916.139727 583.796131,725.215204 575.531783,720.819324 C565.555324,719.758177 427.05558,1005.38565 419.719762,999.804648 C410.358823,997.816836 535.590182,719.839626 527.947656,714.514979 C518.128753,712.981044 365.846043,977.098202 358.976592,970.909928 C349.741698,968.598519 498.244863,714.586923 491.270375,708.489005 C481.795995,706.492787 334.612101,909.199498 328.24683,902.553145 C319.516115,900.082039 441.648573,705.503084 435.562702,698.894554 C426.775267,696.57474 348.203036,750.85714 342.570927,744.017469 C334.300277,741.34464 396.749255,685.075576 391.394445,678.006866 C383.222529,675.273099 298.745092,715.492575 293.766316,708.489005 C286.073372,705.652275 363.528917,659.6111 358.976592,652.225096 C351.533637,649.062667 225.076011,696.589449 220.859807,689.577473 C213.843304,686.581046 332.550352,639.697649 328.878242,632.154049 C322.271385,628.527237 186.084001,659.081577 182.741708,652.225096 C176.475173,649.037452 296.488887,614.352542 293.766316,606.815246 C288.106897,602.67362 153.339619,621.170259 150.938463,614.637375 C147.064681,613.164377 288.300615,578.901698 287.733413,573.894344 C284.252471,571.698505 135.584085,596.358329 135.107215,592.090627 C131.559049,590.399095 279.135046,562.797478 278.918668,558.000252 C275.859977,555.480816 26.6455215,565.448481 26.5089728,561.47916 C23.3200351,559.52707 271.740408,546.518851 271.864352,541.975881 C269.265725,539.116037 15.7174229,542.737832 15.9022889,539.102616 C13.1124936,536.856346 266.171321,530.095236 266.61668,525.848547 C264.51383,522.635688 7.54130611,520.117539 8.01397473,516.837439 C5.67373986,514.267571 262.465599,513.558152 263.213466,509.63506 C261.635803,506.069186 2.16338755,497.602309 2.8965491,494.683629 C0.526903737,489.054297 260.299726,492.723948 261.614795,485.953619 C261.037089,478.397412 -0.319698286,457.192568 1.01007611,452.353317 C0.436571511,446.047372 272.870023,456.644134 275.388822,450.598747 C276.726999,442.4857 103.028771,422.286083 105.446734,418.054102 C106.864739,411.082051 283.056557,425.477929 286.728667,420.193206 C289.997434,411.683017 122.496416,379.287563 126.042481,375.538877 C129.527624,368.001581 300.469669,394.965223 305.259378,390.413847 C310.357897,381.722948 41.5086068,276.51915 46.2668043,273.123479 C51.7455588,265.193244 326.275807,357.242493 332.176812,353.371933 C338.913916,344.733565 83.796693,234.264484 89.8573551,231.127271 C94.6617691,225.096593 354.886433,327.841892 358.976592,326.669377 C364.167544,320.407559 230.811057,266.026398 234.930627,265.068214 C240.379971,259.008118 376.338827,311.626304 380.855438,310.708044 C386.554772,304.603822 267.353594,240.455905 272.008854,239.588076 C278.000192,233.57631 399.003359,291.800715 403.954826,291.109393 C410.080611,285.242616 349.705072,234.816066 354.896024,234.025984 C361.328519,228.136093 425.448307,273.613078 430.832528,273.123479 C437.309139,267.573995 393.306127,211.014853 399.013863,210.292012 C405.797183,204.599641 458.980285,257.369119 464.782555,257.058129 C471.540666,251.907889 397.77232,169.291811 403.954826,168.629907 C411.240225,163.10774 495.297298,239.82342 501.72349,239.588076 C508.935363,234.847585 419.712374,83.6796654 426.56712,82.967331 C434.068896,77.8317994 527.728667,227.959585 534.511987,227.875534 C541.900323,223.738111 472.796212,63.8267594 480.008084,63.1606532 C487.663215,58.5147202 556.630993,218.52221 563.708417,218.562134 C571.210194,215.113932 527.531238,46.2327308 535.005705,45.5939413 C542.759571,41.5405696 593.798138,224.809244 601.096142,224.95003 C608.652538,222.268795 583.333446,31.2169744 590.986476,30.5928939 C598.778155,27.2413501 628.991994,218.347804 636.441251,218.562134 C643.982942,216.713007 668.315236,83.0321107 676.069102,82.414334 C694.824593,77.6171087 681.111219,218.257449 698.732305,218.562134 C716.620186,218.21122 791.732164,68.0373671 809.731385,66.9215867 C827.770521,66.0915806 781.548564,237.457377 798.531023,239.588076 C815.200469,243.160254 956.781745,-0.191237657 973.659166,0.995640728 C989.887456,4.75097603 848.031091,268.971347 863.528319,273.123479 C878.168442,280.35609 1071.54779,29.83187 1086.28034,34.0575467 C1099.73564,42.260949 900.395075,297.431765 913.579379,303.842774 C925.675494,314.057103 1109.31716,160.916103 1120.78935,168.629907 C1130.94018,180.495843 956.451732,332.023629 966.48281,340.853213 C975.78703,353.18143 1199.99181,237.486795 1207.26671,248.610978 C1210.3443,256.1903 1010.72689,363.4418 1014.128,367.570818 C1017.45769,374.595402 1175.75336,314.347463 1178.07889,319.485096 C1180.6292,327.247229 1027.54129,387.285039 1029.87732,392.044442 C1032.70073,399.087937 1192.23164,361.701939 1193.34504,367.570818 C1195.41008,375.370774 1047.92696,412.706341 1049.1517,418.054102 C1051.46042,425.013546 1253.19959,385.551482 1253.13447,392.044442 C1254.73104,399.762448 1058.37943,452.281874 1058.49077,458.14655 C1060.2575,464.933688 1257.52924,436.906798 1256.35912,443.897761 C1257.47882,451.426652 1061.03267,483.076151 1060.07053,489.375793 C1061.26376,495.910778 1323.15245,502.538219 1320.99288,509.892704 Z" id="Stroke-3" stroke="#EF8322" stroke-width="2"></path>
    </g>
</svg>